<?xml version="1.0" standalone="no"?><!DOCTYPE svg PUBLIC "-//W3C//DTD SVG 1.1//EN" "http://www.w3.org/Graphics/SVG/1.1/DTD/svg11.dtd"><svg t="1572949300510" class="icon" viewBox="0 0 1024 1024" version="1.1" xmlns="http://www.w3.org/2000/svg" p-id="3668" xmlns:xlink="http://www.w3.org/1999/xlink" width="20" height="20"><defs><style type="text/css"></style></defs><path d="M485.547 750.933a21.76 21.76 0 0 0 34.986 0c6.4-8.96 160-223.146 199.254-291.84a250.027 250.027 0 1 0-433.494 0c39.254 68.694 192.854 282.88 199.254 291.84zM503.04 128a207.36 207.36 0 0 1 206.933 206.933 209.92 209.92 0 0 1-27.306 102.827c-30.72 53.76-137.814 204.8-180.054 264.107C459.947 642.56 353.28 491.52 322.56 437.76a210.347 210.347 0 0 1-27.307-102.827A207.36 207.36 0 0 1 503.04 128z" p-id="3669"></path><path d="M503.04 444.16a100.693 100.693 0 1 0-100.267-100.693A100.693 100.693 0 0 0 503.04 444.16z m0-158.293a58.027 58.027 0 1 1-57.6 57.6 57.6 57.6 0 0 1 57.6-57.6z m416 555.52l-98.987-231.254a20.907 20.907 0 0 0-19.626-12.8h-85.334a21.333 21.333 0 0 0-21.333 21.334A21.76 21.76 0 0 0 715.093 640H787.2l80.64 188.16H139.093L219.307 640h72.106a21.333 21.333 0 0 0 21.334-21.333 21.333 21.333 0 0 0-21.334-21.334H206.08a21.76 21.76 0 0 0-19.627 12.8L85.333 841.387a20.907 20.907 0 0 0 0 20.053 21.76 21.76 0 0 0 17.92 9.387h796.16a21.76 21.76 0 0 0 17.92-9.387 22.187 22.187 0 0 0 1.707-20.053z" p-id="3670"></path></svg>
